<!-- Este es el sprite que contiene todos los logos, cada logo va dentro de un symbol, que a su vez va dentro de un svg que contiene todo.ðŸ‘€ðŸ‘€ðŸ‘€ -->

<svg xmlns="http://www.w3.org/2000/svg" xmlns:xlink="http://www.w3.org/1999/xlink" style="display: none">

<!-- YOUTUBE ðŸ‘€ðŸ‘€-->
<symbol id="youtube" viewBox="0 0 24 24" fill='#fff'>
    <path d="M23.498 6.186c-.27-1.01-1.06-1.8-2.07-2.07C19.5 4 12 4 12 4s-7.5 0-9.43.116c-1.01.27-1.8 1.06-2.07 2.07C0 8.5 0 12 0 12s0 3.5.116 5.814c.27 1.01 1.06 1.8 2.07 2.07C4.5 20 12 20 12 20s7.5 0 9.43-.116c1.01-.27 1.8-1.06 2.07-2.07C24 15.5 24 12 24 12s0-3.5-.116-5.814zM9.545 15V9l6.364 3L9.545 15z"/>
</symbol>

<!-- GITHUB ðŸ‘€ðŸ‘€-->
<symbol version="1.1" xmlns="http://www.w3.org/2000/svg" xmlns:xlink="http://www.w3.org/1999/xlink" viewBox="0 0 20 20" id="github">
    <defs></defs>
    <g id="Page-1" stroke="none" stroke-width="1" fill="#none" fill-rule="evenodd">
        <g id="Dribbble-Light-Preview" transform="translate(-140.000000, -7559.000000)" fill="#ffffff">
            <g id="icons" transform="translate(56.000000, 160.000000)">
                <path d="M94,7399 C99.523,7399 104,7403.59 104,7409.253 C104,7413.782 101.138,7417.624 97.167,7418.981 C96.66,7419.082 96.48,7418.762 96.48,7418.489 C96.48,7418.151 96.492,7417.047 96.492,7415.675 C96.492,7414.719 96.172,7414.095 95.813,7413.777 C98.04,7413.523 100.38,7412.656 100.38,7408.718 C100.38,7407.598 99.992,7406.684 99.35,7405.966 C99.454,7405.707 99.797,7404.664 99.252,7403.252 C99.252,7403.252 98.414,7402.977 96.505,7404.303 C95.706,7404.076 94.85,7403.962 94,7403.958 C93.15,7403.962 92.295,7404.076 91.497,7404.303 C89.586,7402.977 88.746,7403.252 88.746,7403.252 C88.203,7404.664 88.546,7405.707 88.649,7405.966 C88.01,7406.684 87.619,7407.598 87.619,7408.718 C87.619,7412.646 89.954,7413.526 92.175,7413.785 C91.889,7414.041 91.63,7414.493 91.54,7415.156 C90.97,7415.418 89.522,7415.871 88.63,7414.304 C88.63,7414.304 88.101,7413.319 87.097,7413.247 C87.097,7413.247 86.122,7413.234 87.029,7413.87 C87.029,7413.87 87.684,7414.185 88.139,7415.37 C88.139,7415.37 88.726,7417.2 91.508,7416.58 C91.513,7417.437 91.522,7418.245 91.522,7418.489 C91.522,7418.76 91.338,7419.077 90.839,7418.982 C86.865,7417.627 84,7413.783 84,7409.253 C84,7403.59 88.478,7399 94,7399" id="github-[#142]"></path>
            </g>
        </g>
    </g>
</symbol>

<!-- TWITTER ðŸ‘€ðŸ‘€-->
<symbol version="1.0" xmlns="http://www.w3.org/2000/svg" preserveAspectRatio="xMidYMid meet" viewBox="0 0 512.000000 512.000000" id="x">
    <metadata>Created by potrace 1.16, written by Peter Selinger 2001-2019</metadata>
    <g transform="translate(0.000000,512.000000) scale(0.100000,-0.100000)" fill="#ffffff" stroke="none">
        <path d="M520 4406 c0 -3 347 -458 770 -1012 l771 -1007 -24 -26 c-55 -60 -1423 -1627 -1430 -1638 -7 -10 57 -13 305 -13 l313 0 560 641 c308 352 563 643 566 645 3 2 228 -287 499 -641 l493 -645 629 0 c345 0 628 2 628 5 0 2 -358 478 -796 1057 -438 579 -798 1058 -801 1064 -2 6 296 355 664 775 367 421 674 772 682 782 13 16 -4 17 -300 17 l-314 0 -490 -560 c-269 -309 -502 -575 -516 -592 l-26 -31 -447 592 -447 591 -644 0 c-355 0 -645 -2 -645 -4z m2216 -1831 c612 -808 1113 -1473 1113 -1477 1 -5 -74 -8 -166 -8 l-168 1 -1125 1471 c-619 809 -1127 1475 -1128 1480 -2 5 77 7 179 6 l182 -3 1113 -1470z"></path>
    </g>
</symbol>
<!-- FACEBOOK ðŸ‘€ðŸ‘€-->
<symbol id="facebook" viewBox="0 0 24 24"  fill="#1877F2">
    <path d="M22.675 0H1.325C.593 0 0 .593 0 1.325v21.35C0 23.407.593 24 1.325 24h11.494V14.706h-3.12v-3.62h3.12V8.412c0-3.09 1.892-4.788 4.653-4.788 1.325 0 2.465.098 2.8.142v3.25h-1.92c-1.505 0-1.794.716-1.794 1.766v2.31h3.588l-.467 3.62h-3.12V24h6.116c.73 0 1.323-.593 1.323-1.325V1.325C24 .593 23.407 0 22.675 0z"/>
</symbol>

<!-- INSTAGRAM ðŸ‘€ðŸ‘€-->
<symbol version="1.1" xmlns="http://www.w3.org/2000/svg" xmlns:xlink="http://www.w3.org/1999/xlink" viewBox="0 0 20 20" id="instagram">
    <title>instagram [#167]</title>
    <desc>Created with Sketch.</desc>
    <defs></defs>
    <g id="Page-1" stroke="none" stroke-width="1" fill="none" fill-rule="evenodd">
        <g id="Dribbble-Light-Preview" transform="translate(-340.000000, -7439.000000)" fill="#ffffff">
            <g id="icons" transform="translate(56.000000, 160.000000)">
                <path d="M289.869652,7279.12273 C288.241769,7279.19618 286.830805,7279.5942 285.691486,7280.72871 C284.548187,7281.86918 284.155147,7283.28558 284.081514,7284.89653 C284.035742,7285.90201 283.768077,7293.49818 284.544207,7295.49028 C285.067597,7296.83422 286.098457,7297.86749 287.454694,7298.39256 C288.087538,7298.63872 288.809936,7298.80547 289.869652,7298.85411 C298.730467,7299.25511 302.015089,7299.03674 303.400182,7295.49028 C303.645956,7294.859 303.815113,7294.1374 303.86188,7293.08031 C304.26686,7284.19677 303.796207,7282.27117 302.251908,7280.72871 C301.027016,7279.50685 299.5862,7278.67508 289.869652,7279.12273 M289.951245,7297.06748 C288.981083,7297.0238 288.454707,7296.86201 288.103459,7296.72603 C287.219865,7296.3826 286.556174,7295.72155 286.214876,7294.84312 C285.623823,7293.32944 285.819846,7286.14023 285.872583,7284.97693 C285.924325,7283.83745 286.155174,7282.79624 286.959165,7281.99226 C287.954203,7280.99968 289.239792,7280.51332 297.993144,7280.90837 C299.135448,7280.95998 300.179243,7281.19026 300.985224,7281.99226 C301.980262,7282.98483 302.473801,7284.28014 302.071806,7292.99991 C302.028024,7293.96767 301.865833,7294.49274 301.729513,7294.84312 C300.829003,7297.15085 298.757333,7297.47145 289.951245,7297.06748 M298.089663,7283.68956 C298.089663,7284.34665 298.623998,7284.88065 299.283709,7284.88065 C299.943419,7284.88065 300.47875,7284.34665 300.47875,7283.68956 C300.47875,7283.03248 299.943419,7282.49847 299.283709,7282.49847 C298.623998,7282.49847 298.089663,7283.03248 298.089663,7283.68956 M288.862673,7288.98792 C288.862673,7291.80286 291.150266,7294.08479 293.972194,7294.08479 C296.794123,7294.08479 299.081716,7291.80286 299.081716,7288.98792 C299.081716,7286.17298 296.794123,7283.89205 293.972194,7283.89205 C291.150266,7283.89205 288.862673,7286.17298 288.862673,7288.98792 M290.655732,7288.98792 C290.655732,7287.16159 292.140329,7285.67967 293.972194,7285.67967 C295.80406,7285.67967 297.288657,7287.16159 297.288657,7288.98792 C297.288657,7290.81525 295.80406,7292.29716 293.972194,7292.29716 C292.140329,7292.29716 290.655732,7290.81525 290.655732,7288.98792" id="instagram-[#167]"></path>
            </g>
        </g>
    </g>
</symbol>

<!-- GMAIL ðŸ‘€ðŸ‘€-->
<symbol id="gmail" xmlns="http://www.w3.org/2000/svg" viewBox="0 0 32 32">
    <path d="M16.58,19.1068l-12.69-8.0757A3,3,0,0,1,7.1109,5.97l9.31,5.9243L24.78,6.0428A3,3,0,0,1,28.22,10.9579Z" fill="#ea4435"></path>
    <path d="M25.5,5.5h4a0,0,0,0,1,0,0v18a3,3,0,0,1-3,3h0a3,3,0,0,1-3-3V7.5a2,2,0,0,1,2-2Z" fill="#00ac47" transform="translate(53.0001 32.0007) rotate(180)"></path>
    <path d="M29.4562,8.0656c-.0088-.06-.0081-.1213-.0206-.1812-.0192-.0918-.0549-.1766-.0823-.2652a2.9312,2.9312,0,0,0-.0958-.2993c-.02-.0475-.0508-.0892-.0735-.1354A2.9838,2.9838,0,0,0,28.9686,6.8c-.04-.0581-.09-.1076-.1342-.1626a3.0282,3.0282,0,0,0-.2455-.2849c-.0665-.0647-.1423-.1188-.2146-.1771a3.02,3.02,0,0,0-.24-.1857c-.0793-.0518-.1661-.0917-.25-.1359-.0884-.0461-.175-.0963-.267-.1331-.0889-.0358-.1837-.0586-.2766-.0859s-.1853-.06-.2807-.0777a3.0543,3.0543,0,0,0-.357-.036c-.0759-.0053-.1511-.0186-.2273-.018a2.9778,2.9778,0,0,0-.4219.0425c-.0563.0084-.113.0077-.1689.0193a33.211,33.211,0,0,0-.5645.178c-.0515.022-.0966.0547-.1465.0795A2.901,2.901,0,0,0,23.5,8.5v5.762l4.72-3.3043a2.8878,2.8878,0,0,0,1.2359-2.8923Z" fill="#ffba00"></path>
    <path d="M5.5,5.5h0a3,3,0,0,1,3,3v18a0,0,0,0,1,0,0h-4a2,2,0,0,1-2-2V8.5a3,3,0,0,1,3-3Z" fill="#4285f4"></path>
    <path d="M2.5439,8.0656c.0088-.06.0081-.1213.0206-.1812.0192-.0918.0549-.1766.0823-.2652A2.9312,2.9312,0,0,1,2.7426,7.32c.02-.0475.0508-.0892.0736-.1354A2.9719,2.9719,0,0,1,3.0316,6.8c.04-.0581.09-.1076.1342-.1626a3.0272,3.0272,0,0,1,.2454-.2849c.0665-.0647.1423-.1188.2147-.1771a3.0005,3.0005,0,0,1,.24-.1857c.0793-.0518.1661-.0917.25-.1359A2.9747,2.9747,0,0,1,4.3829,5.72c.089-.0358.1838-.0586.2766-.0859s.1853-.06.2807-.0777a3.0565,3.0565,0,0,1,.357-.036c.076-.0053.1511-.0186.2273-.018a2.9763,2.9763,0,0,1,.4219.0425c.0563.0084.113.0077.169.0193a2.9056,2.9056,0,0,1,.286.0888,2.9157,2.9157,0,0,1,.2785.0892c.0514.022.0965.0547.1465.0795a2.9745,2.9745,0,0,1,.3742.21A2.9943,2.9943,0,0,1,8.5,8.5v5.762L3.78,10.9579A2.8891,2.8891,0,0,1,2.5439,8.0656Z" fill="#c52528"></path>
</symbol>

<!-- LINKEDIN ðŸ‘€ðŸ‘€-->
<symbol version="1.1" xmlns="http://www.w3.org/2000/svg" xmlns:xlink="http://www.w3.org/1999/xlink" preserveAspectRatio="xMidYMid" viewBox="0 0 256 256" id="linkedin">
    <g>
        <path d="M218.123122,218.127392 L180.191928,218.127392 L180.191928,158.724263 C180.191928,144.559023 179.939053,126.323993 160.463756,126.323993 C140.707926,126.323993 137.685284,141.757585 137.685284,157.692986 L137.685284,218.123441 L99.7540894,218.123441 L99.7540894,95.9665207 L136.168036,95.9665207 L136.168036,112.660562 L136.677736,112.660562 C144.102746,99.9650027 157.908637,92.3824528 172.605689,92.9280076 C211.050535,92.9280076 218.138927,118.216023 218.138927,151.114151 L218.123122,218.127392 Z M56.9550587,79.2685282 C44.7981969,79.2707099 34.9413443,69.4171797 34.9391618,57.260052 C34.93698,45.1029244 44.7902948,35.2458562 56.9471566,35.2436736 C69.1040185,35.2414916 78.9608713,45.0950217 78.963054,57.2521493 C78.9641017,63.090208 76.6459976,68.6895714 72.5186979,72.8184433 C68.3913982,76.9473153 62.7929898,79.26748 56.9550587,79.2685282 M75.9206558,218.127392 L37.94995,218.127392 L37.94995,95.9665207 L75.9206558,95.9665207 L75.9206558,218.127392 Z M237.033403,0.0182577091 L18.8895249,0.0182577091 C8.57959469,-0.0980923971 0.124827038,8.16056231 -0.001,18.4706066 L-0.001,237.524091 C0.120519052,247.839103 8.57460631,256.105934 18.8895249,255.9977 L237.033403,255.9977 C247.368728,256.125818 255.855922,247.859464 255.999,237.524091 L255.999,18.4548016 C255.851624,8.12438979 247.363742,-0.133792868 237.033403,0.000790807055" fill="#0A66C2"></path>
    </g>
</symbol>

<!-- Node JS 00 ðŸ‘€ðŸ‘€-->
<symbol xmlns="http://www.w3.org/2000/svg" viewBox="0 0 32 32" id="node" fill="#8CC84B">
    <title>file_type_node</title>
    <path d="M16,30a2.151,2.151,0,0,1-1.076-.288L11.5,27.685c-.511-.286-.262-.387-.093-.446a6.828,6.828,0,0,0,1.549-.7.263.263,0,0,1,.255.019l2.631,1.563a.34.34,0,0,0,.318,0l10.26-5.922a.323.323,0,0,0,.157-.278V10.075a.331.331,0,0,0-.159-.283L16.158,3.875a.323.323,0,0,0-.317,0L5.587,9.794a.33.33,0,0,0-.162.281V21.916a.315.315,0,0,0,.161.274L8.4,23.814c1.525.762,2.459-.136,2.459-1.038V11.085a.3.3,0,0,1,.3-.3h1.3a.3.3,0,0,1,.3.3V22.777c0,2.035-1.108,3.2-3.038,3.2a4.389,4.389,0,0,1-2.363-.642L4.661,23.788a2.166,2.166,0,0,1-1.076-1.872V10.075A2.162,2.162,0,0,1,4.661,8.2L14.922,2.276a2.246,2.246,0,0,1,2.156,0L27.338,8.2a2.165,2.165,0,0,1,1.077,1.87V21.916a2.171,2.171,0,0,1-1.077,1.872l-10.26,5.924A2.152,2.152,0,0,1,16,30Z"></path>
    <path d="M14.054,17.953a.3.3,0,0,1,.3-.3h1.327a.3.3,0,0,1,.295.251c.2,1.351.8,2.032,3.513,2.032,2.161,0,3.082-.489,3.082-1.636,0-.661-.261-1.152-3.62-1.481-2.808-.278-4.544-.9-4.544-3.144,0-2.07,1.745-3.305,4.67-3.305,3.287,0,4.914,1.141,5.12,3.589a.3.3,0,0,1-.295.323H22.566a.3.3,0,0,1-.288-.232c-.319-1.421-1.1-1.875-3.2-1.875-2.36,0-2.634.822-2.634,1.438,0,.746.324.964,3.51,1.385,3.153.417,4.651,1.007,4.651,3.223,0,2.236-1.864,3.516-5.115,3.516C14.995,21.743,14.054,19.682,14.054,17.953Z"></path>
</symbol>

<!-- NODE JS 01 ðŸ‘€ðŸ‘€-->
<symbol xmlns="http://www.w3.org/2000/svg" viewBox="-3.8 -1.5 40.921 40.921" id="node-01">
    <defs>
        <linearGradient id="b" x1="271.97" x2="211.104" y1="217.606" y2="341.772" gradientUnits="userSpaceOnUse">
            <stop offset=".3" stop-color="#3e863d"></stop>
            <stop offset=".5" stop-color="#55934f"></stop>
            <stop offset=".8" stop-color="#5aad45"></stop>
        </linearGradient>
        <linearGradient id="d" x1="186.484" x2="297.349" y1="321.381" y2="239.465" gradientUnits="userSpaceOnUse">
            <stop offset=".57" stop-color="#3e863d"></stop>
            <stop offset=".72" stop-color="#619857"></stop>
            <stop offset="1" stop-color="#76ac64"></stop>
        </linearGradient>
        <linearGradient id="f" x1="197.051" x2="288.72" y1="279.652" y2="279.652" gradientUnits="userSpaceOnUse">
            <stop offset=".16" stop-color="#6bbf47"></stop>
            <stop offset=".38" stop-color="#79b461"></stop>
            <stop offset=".47" stop-color="#75ac64"></stop>
            <stop offset=".7" stop-color="#659e5a"></stop>
            <stop offset=".9" stop-color="#3e863d"></stop>
        </linearGradient>
        <clipPath id="a">
        <path d="m239.03 226.605-42.13 24.317a5.085 5.085 0 0 0-2.546 4.406v48.668c0 1.817.968 3.496 2.546 4.406l42.133 24.336a5.1 5.1 0 0 0 5.09 0l42.126-24.336a5.096 5.096 0 0 0 2.54-4.406v-48.668c0-1.816-.97-3.496-2.55-4.406l-42.12-24.317a5.123 5.123 0 0 0-5.1 0"></path>
        </clipPath>
        <clipPath id="c">
        <path d="M195.398 307.086c.403.523.907.976 1.5 1.316l36.14 20.875 6.02 3.46c.9.52 1.926.74 2.934.665.336-.027.672-.09 1-.183l44.434-81.36c-.34-.37-.738-.68-1.184-.94l-27.586-15.93-14.582-8.39a5.318 5.318 0 0 0-1.32-.53zm0 0"></path>
        </clipPath>
        <clipPath id="e">
        <path d="M241.066 225.953a5.14 5.14 0 0 0-2.035.652l-42.01 24.247 45.3 82.51c.63-.09 1.25-.3 1.81-.624l42.13-24.336a5.105 5.105 0 0 0 2.46-3.476l-46.18-78.89a5.29 5.29 0 0 0-1.03-.102l-.42.02"></path>
        </clipPath>
    </defs>
    <g clip-path="url(#a)" transform="translate(-68.564 -79.701) scale(.35278)">
        <path fill="url(#b)" d="m331.363 246.793-118.715-58.19-60.87 124.174L270.49 370.97zm0 0"></path>
    </g>
    <g clip-path="url(#c)" transform="translate(-68.564 -79.701) scale(.35278)">
        <path fill="url(#d)" d="m144.07 264.004 83.825 113.453 110.86-81.906-83.83-113.45zm0 0"></path>
    </g>
    <g clip-path="url(#e)" transform="translate(-68.564 -79.701) scale(.35278)">
        <path fill="url(#f)" d="M197.02 225.934v107.43h91.683v-107.43zm0 0"></path>
    </g>
</symbol>

<!-- JAVA SCRIPT ðŸ‘€ðŸ‘€-->
<symbol version="1.1" xmlns="http://www.w3.org/2000/svg" xmlns:xlink="http://www.w3.org/1999/xlink" enable-background="new 0 0 512 512" xml:space="preserve" viewBox="0 0 512 512" id="js01" fill="#F7DF1E">
    <g id="5151e0c8492e5103c096af88a51e75c7">
        <path display="inline" fill-rule="evenodd" clip-rule="evenodd" d="M1.008,0.5C0.438,0.583,0.48,1.27,0.521,1.958
		c0,169.668,0,339.31,0,508.974c169.364,1.135,340.808,0.162,510.979,0.486c0-170.309,0-340.61,0-510.918
		C341.342,0.5,171.167,0.5,1.008,0.5z M259.893,452.167c-11.822,11.919-30.478,18.938-53.429,18.938
		c-37.643,0-58.543-18.34-71.884-43.711c12.842-8.2,25.966-16.122,39.344-23.795c5.456,15.262,23.886,32.42,44.683,21.857
		c13.183-6.699,11.661-27.01,11.661-49.054c0-45.773,0-98.578,0-139.872c-0.042-0.688-0.083-1.375,0.482-1.458
		c15.707,0,31.413,0,47.116,0c0,36.788,0,78.402,0,117.529C277.866,395.199,280.91,430.988,259.893,452.167z M470.696,409.917
		c-2.674,39.884-35.243,61.063-79.17,61.188c-43.062,0.124-70.624-19.013-87.433-48.567c12.085-8.317,25.778-15.017,38.375-22.822
		c10.08,15.761,27.537,30.91,53.429,28.652c16.131-1.406,34.856-14.555,24.285-34.482c-5.127-9.66-17.516-14.567-28.656-19.425
		c-35.352-15.424-76.828-29.571-72.861-84.992c1.327-18.514,9.852-31.525,20.889-40.796c11.311-9.5,26.46-15.867,46.629-16.511
		c36.629-1.173,56.723,15.12,70.429,37.884c-11.664,8.891-24.514,16.608-37.401,24.281c-4.229-12.995-24.644-25.658-41.772-17.969
		c-7.789,3.493-14.788,13.761-10.684,26.224c3.66,11.115,18.589,17.199,30.599,22.344
		C433.706,340.486,474.331,355.693,470.696,409.917z"></path>
    </g>
</symbol>

<!-- HTML ðŸ‘€ðŸ‘€-->
<symbol fill="none" xmlns="http://www.w3.org/2000/svg" viewBox="0 0 32 32" id="html-5">
    <path d="M6 28L4 3H28L26 28L16 31L6 28Z" fill="#E44D26"></path>
    <path d="M26 5H16V29.5L24 27L26 5Z" fill="#F16529"></path>
    <path d="M9.5 17.5L8.5 8H24L23.5 11H11.5L12 14.5H23L22 24L16 26L10 24L9.5 19H12.5L13 21.5L16 22.5L19 21.5L19.5 17.5H9.5Z" fill="white"></path>
</symbol>

<!-- CSS ðŸ‘€ðŸ‘€-->
<symbol fill="none" xmlns="http://www.w3.org/2000/svg" viewBox="0 0 32 32" id="css-3">
    <path d="M6 28L4 3H28L26 28L16 31L6 28Z" fill="#1172B8"></path>
    <path d="M26 5H16V29.5L24 27L26 5Z" fill="#33AADD"></path>
    <path d="M19.5 17.5H9.5L9 14L17 11.5H9L8.5 8.5H24L23.5 12L17 14.5H23L22 24L16 26L10 24L9.5 19H12.5L13 21.5L16 22.5L19 21.5L19.5 17.5Z" fill="white"></path>
</symbol>

<!-- Twitch ðŸ‘€ðŸ‘€-->
<symbol xmlns="http://www.w3.org/2000/svg" fill="none" viewBox="0 0 16 16" id="twitch">
    <path fill="#ffffff" d="M13 7.5l-2 2H9l-1.75 1.75V9.5H5V2h8v5.5z"></path>
    <g fill="#9146FF">
        <path d="M4.5 1L2 3.5v9h3V15l2.5-2.5h2L14 8V1H4.5zM13 7.5l-2 2H9l-1.75 1.75V9.5H5V2h8v5.5z"></path>
        <path d="M11.5 3.75h-1v3h1v-3zM8.75 3.75h-1v3h1v-3z"></path>
    </g>
</symbol>

<!-- WhatsApp ðŸ‘€ðŸ‘€-->
<symbol fill="none" xmlns="http://www.w3.org/2000/svg" viewBox="0 0 32 32" id="whatsapp">
    <path fill-rule="evenodd" clip-rule="evenodd" d="M16 31C23.732 31 30 24.732 30 17C30 9.26801 23.732 3 16 3C8.26801 3 2 9.26801 2 17C2 19.5109 2.661 21.8674 3.81847 23.905L2 31L9.31486 29.3038C11.3014 30.3854 13.5789 31 16 31ZM16 28.8462C22.5425 28.8462 27.8462 23.5425 27.8462 17C27.8462 10.4576 22.5425 5.15385 16 5.15385C9.45755 5.15385 4.15385 10.4576 4.15385 17C4.15385 19.5261 4.9445 21.8675 6.29184 23.7902L5.23077 27.7692L9.27993 26.7569C11.1894 28.0746 13.5046 28.8462 16 28.8462Z" fill="#BFC8D0"></path>
    <path d="M28 16C28 22.6274 22.6274 28 16 28C13.4722 28 11.1269 27.2184 9.19266 25.8837L5.09091 26.9091L6.16576 22.8784C4.80092 20.9307 4 18.5589 4 16C4 9.37258 9.37258 4 16 4C22.6274 4 28 9.37258 28 16Z" fill="url(#paint0_linear_87_7264)"></path>
    <path fill-rule="evenodd" clip-rule="evenodd" d="M16 30C23.732 30 30 23.732 30 16C30 8.26801 23.732 2 16 2C8.26801 2 2 8.26801 2 16C2 18.5109 2.661 20.8674 3.81847 22.905L2 30L9.31486 28.3038C11.3014 29.3854 13.5789 30 16 30ZM16 27.8462C22.5425 27.8462 27.8462 22.5425 27.8462 16C27.8462 9.45755 22.5425 4.15385 16 4.15385C9.45755 4.15385 4.15385 9.45755 4.15385 16C4.15385 18.5261 4.9445 20.8675 6.29184 22.7902L5.23077 26.7692L9.27993 25.7569C11.1894 27.0746 13.5046 27.8462 16 27.8462Z" fill="white"></path>
    <path d="M12.5 9.49989C12.1672 8.83131 11.6565 8.8905 11.1407 8.8905C10.2188 8.8905 8.78125 9.99478 8.78125 12.05C8.78125 13.7343 9.52345 15.578 12.0244 18.3361C14.438 20.9979 17.6094 22.3748 20.2422 22.3279C22.875 22.2811 23.4167 20.0154 23.4167 19.2503C23.4167 18.9112 23.2062 18.742 23.0613 18.696C22.1641 18.2654 20.5093 17.4631 20.1328 17.3124C19.7563 17.1617 19.5597 17.3656 19.4375 17.4765C19.0961 17.8018 18.4193 18.7608 18.1875 18.9765C17.9558 19.1922 17.6103 19.083 17.4665 19.0015C16.9374 18.7892 15.5029 18.1511 14.3595 17.0426C12.9453 15.6718 12.8623 15.2001 12.5959 14.7803C12.3828 14.4444 12.5392 14.2384 12.6172 14.1483C12.9219 13.7968 13.3426 13.254 13.5313 12.9843C13.7199 12.7145 13.5702 12.305 13.4803 12.05C13.0938 10.953 12.7663 10.0347 12.5 9.49989Z" fill="white"></path>
    <defs>
        <linearGradient id="paint0_linear_87_7264" x1="26.5" y1="7" x2="4" y2="28" gradientUnits="userSpaceOnUse">
            <stop stop-color="#5BD066"></stop>
            <stop offset="1" stop-color="#27B43E"></stop>
        </linearGradient>
    </defs>
</symbol>

<!-- UBI MAP ðŸ‘€ðŸ‘€ -->
<symbol version="1.1" id="map-marker-4" xmlns="http://www.w3.org/2000/svg" xmlns:xlink="http://www.w3.org/1999/xlink" xml:space="preserve" viewBox="0 0 512 512" fill="#ffffff">
    <g>
    <path d="M256,0C159.969,0,82.109,77.859,82.109,173.906c0,100.719,80.016,163.688,123.297,238.719
		C246.813,484.406,246.781,512,256,512s9.188-27.594,50.594-99.375c43.297-75.031,123.297-138,123.297-238.719
		C429.891,77.859,352.031,0,256,0z M256,240.406c-36.734,0-66.516-29.781-66.516-66.5c0-36.75,29.781-66.531,66.516-66.531
		s66.516,29.781,66.516,66.531C322.516,210.625,292.734,240.406,256,240.406z"></path>
    </g>
</symbol>

<!-- MAPA TRIPTICO ðŸ‘€ðŸ‘€ -->
<symbol fill="#FFFFFF" version="1.1" id="folded-map-with-position-mark" xmlns="http://www.w3.org/2000/svg" xmlns:xlink="http://www.w3.org/1999/xlink" xml:space="preserve" viewBox="0 0 561.554 561.554">
    <g>
        <g>
        <path d="M561.389,416.447l-37.247-183.318c-0.446-2.201-1.771-4.127-3.662-5.336c-1.896-1.205-4.196-1.586-6.385-1.072
			l-160.669,38.447l-46.053-11.019c16.577-31.364,34.579-69.958,34.579-89.692c0-37.687-30.662-68.351-68.351-68.351
			c-37.688,0-68.351,30.664-68.351,68.351c0,15.996,11.831,44.387,25.143,71.273c0,0-37.737-9.019-37.784-9.029
			c-0.243-0.057-1.458-0.316-1.825-0.314c-0.312,0.003-1.538,0.252-1.825,0.322c-0.03,0.006-162.688,38.92-162.688,38.92
			c-3.406,0.818-5.932,3.682-6.309,7.165L0.049,456.111c-0.288,2.639,0.707,5.252,2.673,7.035c1.539,1.393,3.526,2.145,5.563,2.145
			c0.565,0,1.136-0.057,1.7-0.18l183.652-38.527c0,0,162.129,38.863,162.712,38.863c0.507,0,198.525-39.223,198.525-39.223
			c2.165-0.431,4.068-1.699,5.29-3.535C561.386,420.855,561.827,418.605,561.389,416.447z M17.753,446.553l18.053-166.165
			l146.874-35.146l2.672,166.153L17.753,446.553z M221.821,164.458c0-28.551,23.229-51.779,51.78-51.779
			c28.553,0,51.782,23.229,51.782,51.779c0,22.203-32.696,83.389-51.782,116.408C254.516,247.851,221.821,186.667,221.821,164.458z
            M201.954,411.535l-2.673-166.212l41.083,9.83c12.192,22.998,23.501,41.925,26.145,46.307c1.499,2.483,4.19,4.006,7.093,4.006
			c2.904,0,5.596-1.521,7.095-4.006c2.077-3.445,9.518-15.894,18.526-32.225l46.024,11.016l2.674,166.212L201.954,411.535z
            M364.5,446.957l-2.684-166.759l147.795-35.365l33.88,166.75L364.5,446.957z"></path>
        <path d="M290.383,212.57c1.495,1.172,3.303,1.764,5.112,1.764c0.028,0,0.056,0,0.082,0c4.575,0,8.286-3.709,8.286-8.285
			c0-1.197-0.255-2.338-0.713-3.366l-21.578-75.657c-1.016-3.556-4.264-6.012-7.966-6.012c-3.699,0-6.952,2.456-7.968,6.012
			l-21.897,76.75c-0.985,3.451,0.366,7.148,3.346,9.15c2.975,2.003,6.907,1.861,9.735-0.355l16.779-13.16L290.383,212.57z
            M266.677,183.783l6.928-24.28l6.926,24.28l-1.814-1.424c-1.503-1.178-3.307-1.764-5.114-1.764c-1.805,0-3.609,0.586-5.113,1.764
			L266.677,183.783z"></path>
        </g>
    </g>
</symbol>

<!-- PANDA LOGOðŸ¼ðŸ‘€ðŸ‘€ -->
<symbol fill="#ffffff" version="1.1" id="panda" xmlns="http://www.w3.org/2000/svg" xmlns:xlink="http://www.w3.org/1999/xlink" xml:space="preserve" viewBox="0 0 512 512">
    <g>
        <g>
        <path d="M509.591,258.101l-26.677-26.871c-1.43-11.451-8.872-49.49-45.697-71.701c-0.166-0.101-0.336-0.185-0.507-0.272
			c-2.405-7.024-4.752-12.966-4.913-13.374c-0.933-2.357-2.893-4.157-5.319-4.888c-2.425-0.731-5.054-0.311-7.134,1.137
			c-0.637,0.445-3.577,2.532-7.178,5.662c-9.716-4.694-37.73-16.951-75.533-22.598c-2.303-2.366-5.063-4.328-8.253-5.826
			c-9.868-4.629-28.037-5.903-49.438,4.4c-0.736,0.355-1.457,0.794-2.172,1.273c-49.046-9.468-93.149-10.293-131.093-2.427
			c-32.464,6.731-60.69,19.824-83.892,38.916C10.994,203.33,0,260.804,0,272.791c0,19.122,10.964,32.28,16.602,37.783
			c-9.771,46.924-7.84,76.343-7.733,77.822c0.314,4.337,3.923,7.695,8.273,7.695h53.08c4.58,0,8.294-3.712,8.294-8.294
			c0-8.21-2.389-14.204-5.426-18.355c5.876-6.669,15.675-18.049,26.031-31.177c2.128,14.674,6.764,34.812,16.892,53.486
			c1.45,2.674,4.249,4.339,7.291,4.339h61.927c2.289,0,4.477-0.945,6.044-2.615c1.568-1.669,2.375-3.91,2.233-6.196
			c-0.051-0.802-0.57-8.049-3.319-15.594c-3.689-10.118-9.255-14.89-14.358-17.054v-29.048c17.282-0.284,35.398-2.296,51.522-7.303
			c1.157,36.703,11.303,70.091,11.88,71.962c1.073,3.477,4.287,5.848,7.925,5.848h61.927c4.447,0,8.101-3.507,8.287-7.949
			c0.048-1.146,0.255-11.407-7.009-18.98c-2.109-2.198-5.371-4.672-10.142-6.117c1.748-11.148,7.551-28.408,15.864-46.741
			c1.268-2.797,2.563-5.541,3.875-8.234c11.252,22.256,34.586,64.05,59.918,83.591c3.76,2.899,8.421,4.432,13.478,4.432h48.424
			c2.229,0,4.366-0.898,5.925-2.49c1.56-1.592,2.413-3.748,2.367-5.976c-0.208-9.994-6.802-24.684-23.971-25.753
			c-5.812-6.378-18.096-37.898-27.405-67.19c9.351,1.062,17.625,2.327,23.267,3.821c25.496,6.749,53.375,9.005,54.55,9.098
			c0.219,0.018,0.437,0.025,0.654,0.025c2.598,0,5.06-1.22,6.634-3.318l26.54-35.387
			C512.811,265.628,512.492,261.022,509.591,258.101z M413.505,170.898c1.652-2.752,4.236-5.61,6.867-8.127
			c1.327,3.784,2.727,8.021,3.758,11.762c-2.214,1.768-6.591,4.306-11.684,6.817C412.027,177.278,412.146,173.164,413.505,170.898z
            M55.252,364.508c-1.963,2.146-3.071,5.034-2.244,7.822c0.807,2.724,2.556,4.716,5.26,5.487c0.326,0.205,0.985,0.698,1.654,1.686
			H25.247c0.018-4.866,0.224-11.919,0.971-20.827c1.392-16.601,5.001-43.224,14.284-75.78c0.732-2.565,2.651-4.731,5.134-5.791
			c9.308-3.974,27.783-9.637,45.084-12.773c25.519-4.622,32.139-1.045,33.132-0.349C123.797,282.603,81.757,335.511,55.252,364.508z
            M128.364,379.504c-11.832-24.368-13.984-51.172-14.375-59.707c9.888,2.256,26.403,4.759,45.252,5.562v35.899
			c0,4.581,3.713,8.294,8.294,8.294c3.862,0,6.316,5.004,7.752,9.952H128.364z M235.125,254.812
			c-1.764,9.164-3.429,17.818-4.942,25.15c-1.392,6.748-2.229,13.73-2.639,20.753c-33.594,12.49-81.138,8.381-104.212,4.079
			c17.091-26.623,17.107-36.878,17.107-40.849c0-5.737-2.682-10.668-7.551-13.885c-19.756-13.045-78.816,5.408-93.766,11.789
			c-7.14,3.048-12.453,9.061-14.573,16.498c-1.129,3.96-2.175,7.833-3.153,11.622c-2.611-4.495-4.81-10.316-4.81-17.179
			c0-8.649,9.689-60.556,55.737-98.449c45.415-37.369,110.255-48.973,192.809-34.572
			C253.762,161.727,245.115,202.898,235.125,254.812z M283.096,370.364c0.14,4.478,3.811,8.035,8.29,8.035
			c2.296,0,4.109,0.364,5.487,1.106H253.45c-4.166-15.817-14.361-60.611-7.02-96.19c1.535-7.44,3.211-16.148,4.985-25.367
			c4.586-23.832,10.294-53.491,16.758-77.337c9.864-36.388,16.696-41.281,17.965-41.892c12.908-6.215,27.385-7.994,35.2-4.328
			c3.33,1.563,5.311,4.013,6.237,7.714c0.907,3.627,2.434,8.552,4.203,14.256c7.661,24.7,23.603,76.096,6.825,92.873
			C313.885,273.949,282.242,343.005,283.096,370.364z M424.086,378.397c2.282,0,3.888,0.438,5.065,1.106h-35.8
			c-1.34,0-2.529-0.348-3.347-0.98c-27.353-21.099-53.837-74.643-60.388-88.49c7.928,0.29,29.85,1.19,51.17,2.929
			c0.398,1.304,6.326,20.592,13.696,40.243C408.727,371.196,415.877,378.397,424.086,378.397z M473.319,290.636
			c-8.764-0.903-28.861-3.34-47.111-8.17c-19.386-5.132-64.289-7.659-86.443-8.63c3.666-5.174,7.232-9.542,10.564-12.875
			c23.857-23.857,7.227-77.479-2.71-109.517c-0.901-2.906-1.734-5.592-2.438-7.956c25.291,4.914,45.023,12.639,55.199,17.154
			c-0.383,0.568-0.752,1.142-1.1,1.722c-7.099,11.832-1.903,29.839-0.79,33.329c0.703,2.203,2.295,4.013,4.389,4.992
			c1.111,0.52,2.311,0.781,3.512,0.781c1.063,0,2.128-0.205,3.132-0.615c0.302-0.123,7.482-3.061,14.596-6.859
			c6.579-3.511,12.708-7.38,15.542-12.149c12.157,10.776,18.886,23.82,22.582,34.35c0.004,0.218,0.01,0.437,0.032,0.657
			c0.359,3.587-4.566,13.424-9.206,20.002c-2.646,3.739-1.76,8.914,1.978,11.561c1.455,1.03,3.127,1.525,4.785,1.525
			c2.6,0,5.161-1.22,6.776-3.503c0.751-1.06,1.903-2.749,3.206-4.854l22.954,23.12L473.319,290.636z"></path>
        </g>
    </g>
</symbol>

<!-- globe ðŸ‘€ðŸ‘€ -->
<symbol fill="#ffffff" version="1.1" id="earth-globe" xmlns="http://www.w3.org/2000/svg" xmlns:xlink="http://www.w3.org/1999/xlink" xml:space="preserve" viewBox="0 0 512 512">
    <g>
        <g>
            <g>
            <path d="M475.75,259.43c-0.648-4.676-5.018-7.936-9.617-7.287c-4.668,0.649-7.936,4.958-7.287,9.626
				c1.297,9.378,1.954,18.927,1.954,28.365c0,112.111-90.539,203.46-202.342,204.791c-30.345-19.388-58.786-43.127-46.114-72.695
				c22.75-53.094,1.579-72.892-7.467-81.348l-1.698-1.613c-2.586-2.577-5.495-4.335-8.073-5.879
				c-6.246-3.746-7.927-4.753-4.574-14.814c2.219-6.682,5.171-9.796,8.576-13.406c7.893-8.346,13.926-16.648,13.926-40.781
				c0-14.046-7.125-25.25-19.55-30.737c-14.089-6.229-32.905-4.028-42.854,5c-6.212,5.649-8.303,13.338-5.726,21.077
				c6.084,18.219-7.817,44.553-33.792,64.034c-6.878,5.163-8.934,2.799-10.155,1.382c-7.62-8.781-7.031-33.758-0.777-40.004
				c4.19-4.19,5.436-9.54,3.328-14.31c-6.912-15.684-51.012-14.473-59.75-14.054c-0.375,0.017-0.674,0.196-1.033,0.265
				c-0.512,0.085-0.99,0.188-1.468,0.367c-0.597,0.213-1.126,0.495-1.647,0.836c-0.393,0.247-0.759,0.503-1.101,0.811
				c-0.461,0.418-0.828,0.862-1.186,1.357c-0.299,0.401-0.555,0.811-0.776,1.271c-0.256,0.529-0.418,1.075-0.563,1.664
				c-0.077,0.316-0.265,0.58-0.307,0.913c-1.084,8.823-1.545,16.563-1.545,25.873c0,102.315,69.282,190.882,168.474,215.39
				c0.683,0.171,1.374,0.256,2.048,0.256c3.831,0,7.322-2.603,8.277-6.494c1.135-4.574-1.664-9.199-6.238-10.325
				C115.14,466.338,51.2,384.572,51.2,290.133c0-5.914,0.222-11.145,0.674-16.469c14.396-0.051,26.692,1.638,32.939,3.55
				c-9.788,15.283-8.713,45.329,3.251,59.119c8.585,9.873,21.018,10.291,33.289,1.084c32.785-24.585,48.384-57.207,39.74-83.081
				c-0.273-0.845-0.546-1.638,1.024-3.063c4.489-4.079,15.906-5.803,24.465-2.014c6.315,2.79,9.387,7.74,9.387,15.13
				c0,19.26-3.883,23.373-9.259,29.056c-3.985,4.224-8.951,9.472-12.373,19.738c-7.671,23.049,4.634,30.438,11.989,34.85
				c1.903,1.135,3.695,2.21,4.787,3.302c0.623,0.623,1.331,1.289,2.108,2.014c7.501,7.014,21.47,20.079,3.439,62.157
				c-20.446,47.71,32.273,80.973,54.784,95.181c1.365,0.853,2.944,1.314,4.557,1.314c122.334,0,221.867-99.533,221.867-221.867
				C477.867,279.91,477.158,269.585,475.75,259.43z"></path>
            <path d="M358.366,294.571c-2.466,0.708-5.837,1.673-6.733,1.741c-11.793,0-19.268,9.131-24.721,15.795
				c-2.082,2.551-5.803,7.33-8.243,7.177c-3.857-1.929-7.91-2.901-12.049-2.901c-10.061,0-18.773,5.982-20.719,14.242
				c-1.374,5.803,0.648,13.747,10.419,18.637c13.858,6.929,28.186,14.089,34.56,20.463c4.386,4.386,11.972,6.904,20.821,6.904
				c13.44,0,31.309-6.528,37.444-24.943c2.423-7.253,8.218-12.8,13.824-18.168c6.502-6.229,12.655-12.1,12.74-20.548
				c0.06-4.984-2.15-9.745-6.554-14.157c-5.999-5.999-14.165-9.037-24.286-9.037C375.16,289.775,365.449,292.548,358.366,294.571z
                M398.643,312.738c-0.401,1.681-4.651,5.751-7.475,8.457c-6.443,6.161-14.456,13.833-18.21,25.096
				c-4.215,12.638-18.449,13.269-21.257,13.269c-4.975,0-8.098-1.314-8.747-1.894c-8.346-8.346-23.236-15.795-39.006-23.671
				c-0.034-0.017-0.06-0.026-0.094-0.043c1.604-0.649,4.574-0.708,7.185,0.597c2.756,1.382,5.581,2.082,8.405,2.082
				c9.446,0,15.411-7.287,20.668-13.713c3.849-4.693,7.808-9.54,11.52-9.54c3.029,0,6.554-1.007,11.418-2.398
				c6.46-1.843,14.498-4.139,21.82-4.139c5.504,0,9.498,1.323,12.211,4.036C398.268,312.073,398.583,312.738,398.643,312.738z"></path>
            <path d="M247.637,85.504c17.135-0.7,34.543,0.759,51.285,4.335c-0.307,12.279,4.992,20.702,8.405,26.112
				c0.939,1.502,2.236,3.55,2.389,3.831c0,30.609-6.255,35.584-6.187,35.601c-13.833,0-36.531,12.356-45.065,28.288
				c-5.239,9.771-4.813,20.113,1.186,29.124c4.113,6.17,7.654,13.03,11.085,19.669c7.253,14.046,15.309,29.628,27.93,29.628
				c2.679,0,5.564-0.7,8.687-2.261c9.95-4.975,17.084-19.123,23.979-32.794c3.038-6.025,7.501-14.865,10.146-17.673
				c8.661,1.178,12.894,9.011,18.62,21.419c4.215,9.131,8.576,18.56,17.143,22.844c14.421,7.211,61.841-0.341,88.047-11.469
				c0.35-0.145,0.589-0.435,0.913-0.623c0.503-0.299,0.981-0.58,1.408-0.964c0.41-0.375,0.725-0.785,1.05-1.22
				c0.333-0.435,0.64-0.862,0.879-1.348c0.247-0.495,0.384-1.007,0.521-1.536c0.145-0.529,0.273-1.033,0.316-1.579
				c0.034-0.572-0.034-1.118-0.119-1.698c-0.043-0.375,0.034-0.734-0.068-1.109c-17.911-66.219-66.56-121.301-130.15-147.337
				c-4.378-1.792-9.353,0.299-11.136,4.659s0.307,9.344,4.668,11.127c56.311,23.066,99.874,70.835,117.922,128.649
				c-26.547,9.353-60.561,12.177-66.62,9.182c-3.209-1.604-6.434-8.576-9.276-14.729c-5.948-12.885-14.097-30.532-34.901-31.454
				c-10.871-0.572-16.811,11.733-24.602,27.179c-4.574,9.062-11.477,22.767-16.981,25.464c-3.166-0.742-9.455-12.919-13.21-20.19
				c-3.473-6.724-7.407-14.345-12.049-21.299c-2.517-3.772-2.62-7.356-0.341-11.605c5.862-10.94,23.45-19.277,30.02-19.277
				c15.428,0,23.253-17.715,23.253-52.668c0-4.966-2.551-9.011-5.009-12.928c-3.618-5.726-7.347-11.657-5.137-21.777
				c0.981-4.497-1.784-8.969-6.246-10.095c-20.582-5.188-42.172-7.381-63.445-6.537c-4.71,0.188-8.371,4.164-8.183,8.875
				C238.95,82.022,242.628,85.658,247.637,85.504z"></path>
            <path d="M258.483,467.302c8.09,0,15.65-2.927,20.753-8.021c5.666-5.666,7.049-13.995,3.891-23.441
				c-2.125-6.383-6.332-13.133-11.255-18.057c-2.441-2.432-5.751-3.772-9.344-3.772c-10.65,0-23.142,12.254-27.699,23.253
				c-3.558,8.593-2.5,16.606,2.91,22.016C242.833,464.375,250.394,467.302,258.483,467.302z M251.998,441.071
				c2.944-4.864,7.1-8.294,9.353-9.515c2.423,2.876,4.523,6.477,5.589,9.677c0.947,2.825,1.033,5.171,0.23,5.973
				c-3.789,3.789-13.636,3.686-17.323,0.094C249.728,446.933,249.737,444.8,251.998,441.071z"></path>
            <path d="M47.078,246.963c0.623,0.145,1.246,0.205,1.86,0.205c3.908,0,7.432-2.705,8.32-6.673
				c6.076-27.264,27.264-67.422,44.45-84.258c3.362-3.294,3.422-8.695,0.128-12.066c-3.311-3.371-8.713-3.422-12.066-0.128
				c-19.422,19.021-42.394,62.353-49.169,92.74C39.578,241.382,42.479,245.939,47.078,246.963z"></path>
            <path d="M146.935,176c1.621,2.022,4.07,3.2,6.665,3.2c2.594,0,5.043-1.178,6.665-3.2l33.886-42.377
				c9.37-10.701,27.716-41.847,27.716-65.357C221.867,30.626,191.241,0,153.6,0c-37.641,0-68.267,30.626-68.267,68.267
				c0,27.486,24.499,61.099,27.469,65.067L146.935,176z M153.6,17.067c28.237,0,51.2,22.963,51.2,51.2
				c0,17.647-15.514,45.005-23.731,54.4L153.6,157.005l-27.298-34.108c-8.26-11.076-23.902-36.745-23.902-54.63
				C102.4,40.03,125.363,17.067,153.6,17.067z"></path>
            <path d="M153.6,85.333c9.412,0,17.067-7.654,17.067-17.067c0-9.412-7.654-17.067-17.067-17.067
				c-9.412,0-17.067,7.654-17.067,17.067C136.533,77.679,144.188,85.333,153.6,85.333z"></path>
            </g>
        </g>
    </g>
</symbol>

<!--WARNING LOGO ðŸ‘€ðŸ‘€â˜¢ï¸  -->
<symbol fill="#ffffff" version="1.1" id="warning-error" xmlns="http://www.w3.org/2000/svg" xmlns:xlink="http://www.w3.org/1999/xlink" xml:space="preserve" viewBox="0 0 512.001 512.001">
    <g>
        <g>
            <g>
                <path d="M504.624,403.292L303.128,54.291C293.291,37.253,275.673,27.083,256,27.083c-19.672,0-37.289,10.172-47.125,27.208
				L7.378,403.292c-9.837,17.038-9.837,37.38,0,54.418c9.837,17.038,27.454,27.208,47.128,27.208h402.992
				c19.672,0,37.289-10.172,47.127-27.208C514.461,440.673,514.46,420.329,504.624,403.292z M486.799,447.419
				c-6.116,10.594-17.071,16.917-29.303,16.917H54.504c-12.233,0-23.187-6.325-29.303-16.917c-6.116-10.594-6.116-23.242,0-33.836
				L226.698,64.582c6.116-10.594,17.07-16.917,29.302-16.917c12.233,0,23.188,6.325,29.304,16.917L486.8,413.583
				C492.916,424.177,492.916,436.825,486.799,447.419z"></path>
                <path d="M372.118,423.172h-1.029c-5.683,0-10.291,4.608-10.291,10.291c0,5.683,4.608,10.291,10.291,10.291h1.029
				c5.683,0,10.291-4.608,10.291-10.291C382.409,427.781,377.801,423.172,372.118,423.172z"></path>
                <path d="M267.484,74.882c-3.326-5.773-8.623-6.636-11.484-6.636c-2.858,0-8.15,0.861-11.478,6.626L43.021,423.884
				c-3.32,5.762-1.422,10.77,0.006,13.246c1.429,2.474,4.821,6.625,11.478,6.625h270.788c5.683,0,10.291-4.608,10.291-10.291
				c0-5.683-4.608-10.291-10.291-10.291H67.197L256.001,96.156l188.804,327.016h-28.607c-5.683,0-10.291,4.608-10.291,10.291
				c0,5.683,4.608,10.291,10.291,10.291h41.3c6.661,0,10.052-4.154,11.474-6.623c1.43-2.474,3.333-7.488,0.003-13.258
				L267.484,74.882z"></path>
                <path d="M256.001,405.22c18.443,0,33.446-15.003,33.446-33.446s-15.003-33.446-33.446-33.446
				c-18.441,0-33.446,15.003-33.446,33.446S237.558,405.22,256.001,405.22z M256.001,358.91c7.094,0,12.864,5.77,12.864,12.864
				s-5.77,12.864-12.864,12.864c-7.094,0-12.864-5.77-12.864-12.864S248.907,358.91,256.001,358.91z"></path>
                <path d="M256.001,317.746c17.023,0,30.873-13.85,30.873-30.873V199.4c0-17.023-13.85-30.873-30.873-30.873
				c-17.023,0-30.873,13.85-30.873,30.873v87.473C225.128,303.897,238.977,317.746,256.001,317.746z M245.71,199.4
				c0-5.674,4.617-10.291,10.291-10.291c5.674,0,10.291,4.617,10.291,10.291v87.473c0,5.674-4.617,10.291-10.291,10.291
				c-5.674,0-10.291-4.617-10.291-10.291V199.4z"></path>
            </g>
        </g>
    </g>
</symbol>

<!-- Moon TOGGLE MODE - DARK MODE ðŸ‘€ðŸ‘€ -->
<symbol fill="none" xmlns="http://www.w3.org/2000/svg" viewBox="0 0 24 24" id="moon-02">
    <path d="M21.9548 12.9564C20.5779 15.3717 17.9791 17.0001 15 17.0001C10.5817 17.0001 7 13.4184 7 9.00008C7 6.02072 8.62867 3.42175 11.0443 2.04492C5.96975 2.52607 2 6.79936 2 11.9998C2 17.5227 6.47715 21.9998 12 21.9998C17.2002 21.9998 21.4733 18.0305 21.9548 12.9564Z" stroke="#ffffff" stroke-width="2" stroke-linecap="round" stroke-linejoin="round"></path>
</symbol>

<!-- SUN TOGGLE MODE - LIGHT MODE ðŸ‘€ðŸ‘€ -->
<symbol fill="none" xmlns="http://www.w3.org/2000/svg" viewBox="0 0 24 24" id="sun-2">
    <path fill-rule="evenodd" clip-rule="evenodd" d="M12 1.25C12.4142 1.25 12.75 1.58579 12.75 2V4C12.75 4.41421 12.4142 4.75 12 4.75C11.5858 4.75 11.25 4.41421 11.25 4V2C11.25 1.58579 11.5858 1.25 12 1.25ZM3.66865 3.71609C3.94815 3.41039 4.42255 3.38915 4.72825 3.66865L6.95026 5.70024C7.25596 5.97974 7.2772 6.45413 6.9977 6.75983C6.7182 7.06553 6.2438 7.08677 5.9381 6.80727L3.71609 4.77569C3.41039 4.49619 3.38915 4.02179 3.66865 3.71609ZM20.3314 3.71609C20.6109 4.02179 20.5896 4.49619 20.2839 4.77569L18.0619 6.80727C17.7562 7.08677 17.2818 7.06553 17.0023 6.75983C16.7228 6.45413 16.744 5.97974 17.0497 5.70024L19.2718 3.66865C19.5775 3.38915 20.0518 3.41039 20.3314 3.71609ZM12 7.75C9.65279 7.75 7.75 9.65279 7.75 12C7.75 14.3472 9.65279 16.25 12 16.25C14.3472 16.25 16.25 14.3472 16.25 12C16.25 9.65279 14.3472 7.75 12 7.75ZM6.25 12C6.25 8.82436 8.82436 6.25 12 6.25C15.1756 6.25 17.75 8.82436 17.75 12C17.75 15.1756 15.1756 17.75 12 17.75C8.82436 17.75 6.25 15.1756 6.25 12ZM1.25 12C1.25 11.5858 1.58579 11.25 2 11.25H4C4.41421 11.25 4.75 11.5858 4.75 12C4.75 12.4142 4.41421 12.75 4 12.75H2C1.58579 12.75 1.25 12.4142 1.25 12ZM19.25 12C19.25 11.5858 19.5858 11.25 20 11.25H22C22.4142 11.25 22.75 11.5858 22.75 12C22.75 12.4142 22.4142 12.75 22 12.75H20C19.5858 12.75 19.25 12.4142 19.25 12ZM17.0255 17.0252C17.3184 16.7323 17.7933 16.7323 18.0862 17.0252L20.3082 19.2475C20.6011 19.5404 20.601 20.0153 20.3081 20.3082C20.0152 20.6011 19.5403 20.601 19.2475 20.3081L17.0255 18.0858C16.7326 17.7929 16.7326 17.3181 17.0255 17.0252ZM6.97467 17.0253C7.26756 17.3182 7.26756 17.7931 6.97467 18.086L4.75244 20.3082C4.45955 20.6011 3.98468 20.6011 3.69178 20.3082C3.39889 20.0153 3.39889 19.5404 3.69178 19.2476L5.91401 17.0253C6.2069 16.7324 6.68177 16.7324 6.97467 17.0253ZM12 19.25C12.4142 19.25 12.75 19.5858 12.75 20V22C12.75 22.4142 12.4142 22.75 12 22.75C11.5858 22.75 11.25 22.4142 11.25 22V20C11.25 19.5858 11.5858 19.25 12 19.25Z" fill="#ffffff"></path>
</symbol>
<!-- SUN MODE NUMB ðŸ‘€â›… -->
<symbol fill="none" xmlns="http://www.w3.org/2000/svg"  id="numb">
    <path transform="matrix(.77976 0 0 .78395-299.99-418.63)" fill="#fff"
        d="m391.84 540.91c-.421-.329-.949-.524-1.523-.524-1.351 0-2.451 1.084-2.485 2.435-1.395.526-2.388 1.88-2.388 3.466 0 1.874 1.385 3.423 3.182 3.667v.034h12.73v-.006c1.775-.104 3.182-1.584 3.182-3.395 0-1.747-1.309-3.186-2.994-3.379.007-.106.011-.214.011-.322 0-2.707-2.271-4.901-5.072-4.901-2.073 0-3.856 1.202-4.643 2.925">
    </path>
</symbol>
<!-- Home Icon ðŸ‘€ -->
<symbol fill="none" xmlns="http://www.w3.org/2000/svg" viewBox="0 -0.5 25 25" id="home">
    <path fill-rule="evenodd" clip-rule="evenodd" d="M10.618 11.36C10.6329 10.3236 11.4826 9.49406 12.5191 9.50412C13.5556 9.51418 14.389 10.36 14.3838 11.3966C14.3785 12.4331 13.5366 13.2705 12.5 13.27C11.4538 13.2601 10.6125 12.4063 10.618 11.36V11.36Z" stroke="#ffffff" stroke-width="1.5" stroke-linecap="round" stroke-linejoin="round"></path>
    <path d="M4.06304 8.83949C3.72639 9.08082 3.64911 9.54936 3.89044 9.88601C4.13177 10.2227 4.60031 10.2999 4.93696 10.0586L4.06304 8.83949ZM9.243 6.04905L9.67996 6.65861L9.68078 6.65802L9.243 6.04905ZM15.756 6.04905L15.3182 6.65802L15.3191 6.65865L15.756 6.04905ZM20.0631 10.0587C20.3998 10.2999 20.8683 10.2226 21.1096 9.88595C21.3509 9.54927 21.2736 9.08074 20.9369 8.83945L20.0631 10.0587ZM7.132 11.36C7.132 10.9458 6.79621 10.61 6.382 10.61C5.96779 10.61 5.632 10.9458 5.632 11.36H7.132ZM6.382 15.181L7.132 15.1866V15.181H6.382ZM7.47311 17.8713L8.00735 17.3449H8.00734L7.47311 17.8713ZM10.147 19.0021L10.1415 19.7521H10.147V19.0021ZM14.853 19.0021V19.7521L14.8585 19.752L14.853 19.0021ZM17.5269 17.8713L18.0611 18.3977L17.5269 17.8713ZM18.618 15.181H17.868L17.868 15.1866L18.618 15.181ZM19.368 11.36C19.368 10.9458 19.0322 10.61 18.618 10.61C18.2038 10.61 17.868 10.9458 17.868 11.36H19.368ZM4.93696 10.0586L9.67996 6.65861L8.80604 5.43949L4.06304 8.83949L4.93696 10.0586ZM9.68078 6.65802C11.3649 5.44733 13.6341 5.44733 15.3182 6.65802L16.1938 5.44008C13.9865 3.85331 11.0125 3.85331 8.80522 5.44008L9.68078 6.65802ZM15.3191 6.65865L20.0631 10.0587L20.9369 8.83945L16.1929 5.43945L15.3191 6.65865ZM5.632 11.36V15.181H7.132V11.36H5.632ZM5.63202 15.1755C5.62309 16.3804 6.09319 17.5395 6.93888 18.3977L8.00734 17.3449C7.44088 16.77 7.126 15.9937 7.13198 15.1866L5.63202 15.1755ZM6.93888 18.3977C7.78458 19.256 8.9366 19.7432 10.1415 19.752L10.1525 18.2521C9.34546 18.2461 8.57381 17.9198 8.00735 17.3449L6.93888 18.3977ZM10.147 19.7521H14.853V18.2521H10.147V19.7521ZM14.8585 19.752C16.0634 19.7432 17.2154 19.256 18.0611 18.3977L16.9927 17.3449C16.4262 17.9198 15.6545 18.2461 14.8475 18.2521L14.8585 19.752ZM18.0611 18.3977C18.9068 17.5395 19.3769 16.3804 19.368 15.1755L17.868 15.1866C17.874 15.9937 17.5591 16.77 16.9927 17.3449L18.0611 18.3977ZM19.368 15.181V11.36H17.868V15.181H19.368Z" fill="#ffffff"></path>
</symbol>
<!-- Search IconðŸ‘€ðŸ‘€ -->
<symbol fill="none" xmlns="http://www.w3.org/2000/svg" viewBox="0 0 24 24" id="search">
    <path d="M11 6C13.7614 6 16 8.23858 16 11M16.6588 16.6549L21 21M19 11C19 15.4183 15.4183 19 11 19C6.58172 19 3 15.4183 3 11C3 6.58172 6.58172 3 11 3C15.4183 3 19 6.58172 19 11Z" stroke="#ffffff" stroke-width="2" stroke-linecap="round" stroke-linejoin="round"></path>
</symbol>
</svg>
